<svg width="20" height="20" viewBox="0 0 20 20" fill="none" xmlns="http://www.w3.org/2000/svg">
<path d="M10.41 18.2109L16.7774 11.8436C17.0445 11.6149 17.0756 11.2129 16.8469 10.9458C16.6181 10.6787 16.2162 10.6476 15.9491 10.8764C15.9242 10.8977 15.9009 10.9209 15.8796 10.9458L10.5947 16.2243L10.5947 2.63665C10.5947 2.28503 10.3096 1.99994 9.95795 1.99994C9.60627 1.99994 9.32124 2.28503 9.32124 2.63665L9.32124 16.2243L4.04273 10.9458C3.814 10.6787 3.41203 10.6476 3.14494 10.8764C2.87786 11.1052 2.84672 11.5071 3.0755 11.7742C3.09685 11.7991 3.12005 11.8223 3.14494 11.8436L9.51232 18.211C9.76058 18.4578 10.1617 18.4578 10.41 18.2109Z" fill="white"/>
</svg>
