<svg width="20" height="20" viewBox="0 0 20 20" fill="none" xmlns="http://www.w3.org/2000/svg">
<path d="M17.4141 9.91406H11.0859V3.58594C11.0859 3.26232 10.8236 3 10.5 3C10.1764 3 9.91406 3.26232 9.91406 3.58594V9.91406H3.58594C3.26232 9.91406 3 10.1764 3 10.5C3 10.8236 3.26232 11.0859 3.58594 11.0859H9.91406V17.4141C9.91406 17.7377 10.1764 18 10.5 18C10.8236 18 11.0859 17.7377 11.0859 17.4141V11.0859H17.4141C17.7377 11.0859 18 10.8236 18 10.5C18 10.1764 17.7377 9.91406 17.4141 9.91406Z" fill="black"/>
</svg>
