<svg width="187" height="45" viewBox="0 0 187 45" fill="none" xmlns="http://www.w3.org/2000/svg">
<g clip-path="url(#clip0_2001_269)">
<path d="M0.912 23V22.088C1.536 22.072 2.032 22.024 2.4 21.944C2.784 21.864 3.072 21.728 3.264 21.536C3.472 21.344 3.608 21.072 3.672 20.72C3.752 20.368 3.792 19.912 3.792 19.352V8.168C3.792 7.608 3.76 7.16 3.696 6.824C3.648 6.472 3.536 6.2 3.36 6.008C3.2 5.8 2.96 5.664 2.64 5.6C2.32 5.52 1.904 5.464 1.392 5.432V4.52H8.568C10.728 4.52 12.408 4.904 13.608 5.672C14.808 6.44 15.408 7.52 15.408 8.912C15.408 9.968 15.072 10.832 14.4 11.504C13.744 12.176 12.696 12.728 11.256 13.16V13.256C11.752 13.304 12.184 13.36 12.552 13.424C12.92 13.488 13.248 13.568 13.536 13.664C13.824 13.744 14.088 13.848 14.328 13.976C14.584 14.104 14.832 14.248 15.072 14.408C16.496 15.416 17.208 16.68 17.208 18.2C17.208 19.048 16.968 19.84 16.488 20.576C16.024 21.296 15.368 21.864 14.52 22.28C14.248 22.424 13.968 22.544 13.68 22.64C13.392 22.72 13.056 22.792 12.672 22.856C12.288 22.904 11.84 22.944 11.328 22.976C10.832 22.992 10.24 23 9.552 23H0.912ZM9.624 21.968C12.52 21.968 13.968 20.728 13.968 18.248C13.968 16.44 13.224 15.176 11.736 14.456C11.48 14.344 11.232 14.248 10.992 14.168C10.752 14.088 10.472 14.032 10.152 14C9.832 13.952 9.448 13.92 9 13.904C8.568 13.888 8.032 13.88 7.392 13.88H6.312V19.232C6.312 20.208 6.568 20.912 7.08 21.344C7.592 21.76 8.44 21.968 9.624 21.968ZM7.656 12.68C8.152 12.68 8.568 12.672 8.904 12.656C9.24 12.64 9.528 12.616 9.768 12.584C10.008 12.536 10.216 12.48 10.392 12.416C10.584 12.336 10.776 12.232 10.968 12.104C11.48 11.784 11.84 11.4 12.048 10.952C12.272 10.504 12.384 9.92 12.384 9.2C12.384 7.936 12.072 7.032 11.448 6.488C10.84 5.928 9.88 5.648 8.568 5.648H6.72C6.448 5.648 6.312 5.784 6.312 6.056V12.68H7.656ZM35.5618 23H20.0578V22.088C20.6178 22.072 21.0658 22.024 21.4018 21.944C21.7538 21.864 22.0258 21.728 22.2178 21.536C22.4098 21.344 22.5378 21.072 22.6018 20.72C22.6658 20.368 22.6978 19.912 22.6978 19.352V8.168C22.6978 7.608 22.6658 7.16 22.6018 6.824C22.5538 6.472 22.4418 6.2 22.2658 6.008C22.1058 5.8 21.8658 5.664 21.5458 5.6C21.2258 5.52 20.8098 5.464 20.2978 5.432V4.52H27.5938V5.432C27.0818 5.448 26.6658 5.496 26.3458 5.576C26.0418 5.656 25.8018 5.8 25.6258 6.008C25.4658 6.216 25.3538 6.504 25.2898 6.872C25.2418 7.24 25.2178 7.728 25.2178 8.336V18.68C25.2178 19.352 25.2818 19.904 25.4098 20.336C25.5538 20.752 25.7858 21.08 26.1058 21.32C26.4418 21.544 26.8818 21.704 27.4258 21.8C27.9698 21.88 28.6578 21.92 29.4898 21.92C30.4018 21.92 31.1698 21.872 31.7938 21.776C32.4178 21.664 32.9378 21.48 33.3538 21.224C33.7858 20.952 34.1218 20.584 34.3618 20.12C34.6178 19.64 34.8338 19.024 35.0098 18.272H35.9218L35.5618 23ZM48.8473 16.304H42.4393C42.1673 16.96 41.9353 17.544 41.7433 18.056C41.5513 18.552 41.3913 18.984 41.2633 19.352C41.1513 19.72 41.0713 20.032 41.0233 20.288C40.9753 20.544 40.9513 20.752 40.9513 20.912C40.9513 21.36 41.0953 21.672 41.3833 21.848C41.6713 22.008 42.1513 22.088 42.8233 22.088V23H36.9913V22.088C37.3593 22.04 37.6713 21.976 37.9273 21.896C38.1993 21.816 38.4313 21.704 38.6233 21.56C38.8313 21.416 39.0073 21.232 39.1513 21.008C39.3113 20.768 39.4633 20.48 39.6073 20.144L45.8473 4.52H46.8793L52.3273 18.056C52.6953 18.952 53.0153 19.672 53.2873 20.216C53.5593 20.744 53.8233 21.144 54.0793 21.416C54.3353 21.688 54.6073 21.864 54.8953 21.944C55.1993 22.024 55.5593 22.064 55.9753 22.064V23H48.1513V22.064C48.9993 22.064 49.5833 21.984 49.9033 21.824C50.2233 21.664 50.3833 21.4 50.3833 21.032C50.3833 20.872 50.3753 20.728 50.3593 20.6C50.3433 20.456 50.3113 20.304 50.2633 20.144C50.2313 19.984 50.1753 19.808 50.0953 19.616C50.0313 19.408 49.9433 19.168 49.8313 18.896L48.8473 16.304ZM42.9193 15.104H48.3913L45.7273 8.024L42.9193 15.104ZM72.4616 4.52H73.1336L73.3496 10.04H72.4616C72.1096 8.632 71.4296 7.528 70.4216 6.728C69.4136 5.928 68.1976 5.528 66.7736 5.528C65.7976 5.528 64.9256 5.72 64.1576 6.104C63.3896 6.488 62.7416 7.04 62.2136 7.76C61.6856 8.48 61.2776 9.36 60.9896 10.4C60.7176 11.44 60.5816 12.616 60.5816 13.928C60.5816 16.504 61.1176 18.488 62.1896 19.88C63.2616 21.256 64.8136 21.944 66.8456 21.944C69.9336 21.944 71.9176 20.304 72.7976 17.024H73.7816V23H72.9416L72.3896 21.104C70.7096 22.528 68.6776 23.24 66.2936 23.24C64.9336 23.24 63.7016 23.024 62.5976 22.592C61.5096 22.16 60.5736 21.552 59.7896 20.768C59.0216 19.968 58.4216 19 57.9896 17.864C57.5736 16.728 57.3656 15.464 57.3656 14.072C57.3656 12.616 57.5896 11.288 58.0376 10.088C58.4856 8.888 59.1096 7.856 59.9096 6.992C60.7256 6.128 61.6936 5.464 62.8136 5C63.9496 4.52 65.1976 4.28 66.5576 4.28C67.5176 4.28 68.4216 4.416 69.2696 4.688C70.1176 4.96 71.0376 5.4 72.0296 6.008L72.4616 4.52ZM82.1278 19.184C82.1278 19.792 82.1598 20.288 82.2238 20.672C82.2878 21.056 82.4158 21.352 82.6078 21.56C82.7998 21.768 83.0638 21.912 83.3998 21.992C83.7358 22.056 84.1838 22.088 84.7438 22.088V23H76.9678V22.088C77.5278 22.088 77.9758 22.056 78.3118 21.992C78.6638 21.912 78.9358 21.776 79.1278 21.584C79.3198 21.376 79.4478 21.096 79.5118 20.744C79.5758 20.376 79.6078 19.912 79.6078 19.352V8.168C79.6078 7.56 79.5678 7.08 79.4878 6.728C79.4238 6.36 79.2958 6.08 79.1038 5.888C78.9278 5.696 78.6878 5.576 78.3838 5.528C78.0798 5.464 77.6878 5.432 77.2078 5.432V4.52H84.5038V5.432C84.0238 5.432 83.6318 5.464 83.3278 5.528C83.0238 5.592 82.7758 5.728 82.5838 5.936C82.4078 6.144 82.2878 6.44 82.2238 6.824C82.1598 7.192 82.1278 7.696 82.1278 8.336V14.264L88.1278 7.04C88.4478 6.64 88.6078 6.328 88.6078 6.104C88.6078 5.656 88.1518 5.432 87.2398 5.432V4.52H93.0238V5.408C92.7038 5.408 92.4238 5.432 92.1838 5.48C91.9438 5.512 91.7038 5.592 91.4638 5.72C91.2398 5.848 90.9998 6.032 90.7438 6.272C90.4878 6.512 90.1918 6.824 89.8558 7.208L85.3438 12.416L92.3518 20.84C92.7518 21.304 93.1278 21.632 93.4798 21.824C93.8318 22 94.3038 22.088 94.8958 22.088V23H87.5278V22.088C88.1518 22.088 88.5998 22.04 88.8718 21.944C89.1438 21.832 89.2798 21.664 89.2798 21.44C89.2798 21.312 89.2158 21.128 89.0878 20.888C88.9598 20.648 88.7518 20.352 88.4638 20L83.7838 14.24L82.1278 16.16V19.184ZM111.103 9.152C111.103 10.432 110.719 11.496 109.951 12.344C109.183 13.192 107.959 13.76 106.279 14.048L111.583 20.432C112.015 20.96 112.487 21.344 112.999 21.584C113.527 21.808 114.151 21.976 114.871 22.088V23H110.239L104.359 15.464C104.151 15.192 103.951 14.976 103.759 14.816C103.583 14.656 103.391 14.536 103.183 14.456C102.991 14.36 102.759 14.304 102.487 14.288C102.231 14.256 101.919 14.24 101.551 14.24V19.232C101.551 19.824 101.583 20.312 101.647 20.696C101.727 21.064 101.879 21.352 102.103 21.56C102.343 21.768 102.679 21.912 103.111 21.992C103.559 22.056 104.143 22.088 104.863 22.088V23H96.3909V22.088C96.9509 22.072 97.3989 22.024 97.7349 21.944C98.0869 21.864 98.3589 21.728 98.5509 21.536C98.7429 21.344 98.8709 21.072 98.9349 20.72C98.9989 20.368 99.0309 19.912 99.0309 19.352V8.168C99.0309 7.608 98.9989 7.16 98.9349 6.824C98.8869 6.472 98.7749 6.2 98.5989 6.008C98.4389 5.8 98.1989 5.664 97.8789 5.6C97.5589 5.52 97.1429 5.464 96.6309 5.432V4.52H104.167C106.375 4.52 108.079 4.928 109.279 5.744C110.495 6.56 111.103 7.696 111.103 9.152ZM101.551 13.04H103.255C104.855 13.04 106.039 12.752 106.807 12.176C107.591 11.584 107.983 10.616 107.983 9.272C107.983 7.976 107.671 7.048 107.047 6.488C106.439 5.928 105.479 5.648 104.167 5.648H101.959C101.687 5.648 101.551 5.784 101.551 6.056V13.04ZM121.185 18.464C121.185 19.264 121.217 19.896 121.281 20.36C121.345 20.824 121.465 21.184 121.641 21.44C121.833 21.696 122.097 21.864 122.433 21.944C122.785 22.024 123.241 22.072 123.801 22.088V23H116.025V22.088C116.585 22.072 117.033 22.024 117.369 21.944C117.721 21.848 117.993 21.68 118.185 21.44C118.377 21.2 118.505 20.864 118.569 20.432C118.633 19.984 118.665 19.384 118.665 18.632V8.888C118.665 8.216 118.633 7.664 118.569 7.232C118.521 6.784 118.409 6.432 118.233 6.176C118.073 5.92 117.833 5.744 117.513 5.648C117.193 5.536 116.777 5.464 116.265 5.432V4.52H123.561V5.432C123.049 5.448 122.633 5.512 122.313 5.624C122.009 5.736 121.769 5.928 121.593 6.2C121.433 6.456 121.321 6.816 121.257 7.28C121.209 7.744 121.185 8.336 121.185 9.056V18.464ZM126.538 23V22.088C127.146 22.072 127.634 22.032 128.002 21.968C128.386 21.888 128.682 21.752 128.89 21.56C129.098 21.352 129.234 21.08 129.298 20.744C129.378 20.392 129.418 19.928 129.418 19.352V8.168C129.418 7.608 129.386 7.16 129.322 6.824C129.274 6.472 129.162 6.2 128.986 6.008C128.826 5.8 128.586 5.664 128.266 5.6C127.946 5.52 127.53 5.464 127.018 5.432V4.52H135.442C136.882 4.52 138.21 4.76 139.426 5.24C140.658 5.72 141.714 6.384 142.594 7.232C143.49 8.08 144.186 9.088 144.682 10.256C145.178 11.424 145.426 12.696 145.426 14.072C145.426 15.384 145.194 16.592 144.73 17.696C144.266 18.784 143.61 19.72 142.762 20.504C141.93 21.288 140.93 21.904 139.762 22.352C138.594 22.784 137.314 23 135.922 23H126.538ZM132.346 5.696C132.074 5.696 131.938 5.832 131.938 6.104V19.088C131.938 20.912 133.13 21.824 135.514 21.824C137.706 21.824 139.386 21.176 140.554 19.88C141.722 18.568 142.306 16.648 142.306 14.12C142.306 12.792 142.146 11.608 141.826 10.568C141.506 9.528 141.042 8.648 140.434 7.928C139.842 7.208 139.122 6.656 138.274 6.272C137.426 5.888 136.466 5.696 135.394 5.696H132.346ZM157.829 23.24C156.469 23.24 155.245 23.024 154.157 22.592C153.069 22.16 152.141 21.552 151.373 20.768C150.605 19.968 150.013 19 149.597 17.864C149.197 16.728 148.997 15.464 148.997 14.072C148.997 12.616 149.221 11.288 149.669 10.088C150.117 8.888 150.741 7.856 151.541 6.992C152.357 6.128 153.325 5.464 154.445 5C155.581 4.52 156.829 4.28 158.189 4.28C159.149 4.28 160.053 4.416 160.901 4.688C161.749 4.96 162.669 5.4 163.661 6.008L164.165 4.52H165.005L164.693 10.04H163.541C163.541 9.256 163.389 8.584 163.085 8.024C162.797 7.448 162.413 6.976 161.933 6.608C161.453 6.24 160.901 5.968 160.277 5.792C159.669 5.616 159.045 5.528 158.405 5.528C157.429 5.528 156.557 5.72 155.789 6.104C155.021 6.488 154.373 7.04 153.845 7.76C153.317 8.48 152.909 9.36 152.621 10.4C152.349 11.44 152.213 12.616 152.213 13.928C152.213 16.504 152.749 18.488 153.821 19.88C154.893 21.256 156.445 21.944 158.477 21.944C159.245 21.944 159.933 21.856 160.541 21.68C161.149 21.488 161.661 21.24 162.077 20.936C162.509 20.616 162.829 20.256 163.037 19.856C163.261 19.44 163.373 19.008 163.373 18.56C163.373 17.632 163.181 17.008 162.797 16.688C162.429 16.352 161.821 16.184 160.973 16.184V15.272H167.789V16.184C167.405 16.184 167.085 16.216 166.829 16.28C166.573 16.344 166.365 16.464 166.205 16.64C166.061 16.8 165.957 17.016 165.893 17.288C165.845 17.56 165.821 17.904 165.821 18.32V21.008C165.517 21.008 165.237 21.024 164.981 21.056C164.741 21.072 164.485 21.128 164.213 21.224C163.941 21.304 163.637 21.424 163.301 21.584C162.981 21.728 162.597 21.928 162.149 22.184C161.589 22.504 160.941 22.76 160.205 22.952C159.485 23.144 158.693 23.24 157.829 23.24ZM175.4 12.848C176.264 12.848 176.984 12.8 177.56 12.704C178.152 12.592 178.616 12.424 178.952 12.2C179.304 11.976 179.552 11.688 179.696 11.336C179.856 10.984 179.936 10.568 179.936 10.088H180.776V16.64H179.936C179.936 16.16 179.864 15.744 179.72 15.392C179.592 15.04 179.352 14.752 179 14.528C178.664 14.288 178.2 14.112 177.608 14C177.032 13.872 176.296 13.808 175.4 13.808V19.232C175.4 19.76 175.464 20.2 175.592 20.552C175.72 20.888 175.936 21.168 176.24 21.392C176.56 21.6 176.976 21.752 177.488 21.848C178 21.928 178.632 21.968 179.384 21.968C180.232 21.968 180.952 21.912 181.544 21.8C182.136 21.672 182.632 21.464 183.032 21.176C183.432 20.888 183.752 20.512 183.992 20.048C184.232 19.568 184.432 18.976 184.592 18.272H185.504L185.144 23H170.24V22.088C170.8 22.072 171.248 22.024 171.584 21.944C171.936 21.864 172.208 21.728 172.4 21.536C172.592 21.344 172.72 21.072 172.784 20.72C172.848 20.368 172.88 19.912 172.88 19.352V8.168C172.88 7.608 172.848 7.16 172.784 6.824C172.736 6.472 172.624 6.2 172.448 6.008C172.288 5.8 172.048 5.664 171.728 5.6C171.408 5.52 170.992 5.464 170.48 5.432V4.52H184.352L184.568 8.744H183.728C183.632 8.104 183.472 7.584 183.248 7.184C183.04 6.768 182.744 6.44 182.36 6.2C181.992 5.96 181.52 5.792 180.944 5.696C180.368 5.6 179.672 5.552 178.856 5.552H175.808C175.536 5.552 175.4 5.688 175.4 5.96V12.848Z" fill="#1A1A1A"/>
<path d="M7.68 37.972C7.512 38.42 7.272 38.808 6.96 39.136C6.648 39.456 6.28 39.7 5.856 39.868C5.44 40.036 4.984 40.12 4.488 40.12C3.736 40.12 3.084 39.956 2.532 39.628C1.988 39.292 1.564 38.82 1.26 38.212C0.964 37.604 0.816 36.88 0.816 36.04C0.816 35.2 0.964 34.476 1.26 33.868C1.564 33.26 1.988 32.792 2.532 32.464C3.084 32.128 3.728 31.96 4.464 31.96C4.976 31.96 5.432 32.032 5.832 32.176C6.232 32.312 6.572 32.52 6.852 32.8C7.14 33.072 7.368 33.408 7.536 33.808L6.588 34.252C6.412 33.796 6.156 33.452 5.82 33.22C5.492 32.98 5.064 32.86 4.536 32.86C4 32.86 3.528 32.988 3.12 33.244C2.712 33.492 2.392 33.852 2.16 34.324C1.936 34.796 1.824 35.368 1.824 36.04C1.824 36.704 1.932 37.276 2.148 37.756C2.364 38.228 2.672 38.592 3.072 38.848C3.472 39.096 3.944 39.22 4.488 39.22C5.016 39.22 5.476 39.088 5.868 38.824C6.26 38.552 6.544 38.148 6.72 37.612L7.68 37.972ZM15.6426 32.08C16.4506 32.08 17.0986 32.288 17.5866 32.704C18.0746 33.12 18.3186 33.684 18.3186 34.396C18.3186 35.108 18.0706 35.664 17.5746 36.064C17.0866 36.456 16.4386 36.652 15.6306 36.652L15.5466 36.712H13.6026V40H12.6426V32.08H15.6426ZM15.6306 35.812C16.1986 35.812 16.6186 35.696 16.8906 35.464C17.1706 35.224 17.3106 34.868 17.3106 34.396C17.3106 33.924 17.1706 33.572 16.8906 33.34C16.6186 33.1 16.1986 32.98 15.6306 32.98H13.6026V35.812H15.6306ZM16.1826 36.004L18.7986 40H17.6586L15.3786 36.532L16.1826 36.004ZM26.8647 31.96C27.6167 31.96 28.2647 32.128 28.8087 32.464C29.3607 32.792 29.7847 33.26 30.0807 33.868C30.3847 34.476 30.5367 35.2 30.5367 36.04C30.5367 36.88 30.3847 37.604 30.0807 38.212C29.7847 38.82 29.3607 39.292 28.8087 39.628C28.2647 39.956 27.6167 40.12 26.8647 40.12C26.1127 40.12 25.4607 39.956 24.9087 39.628C24.3647 39.292 23.9407 38.82 23.6367 38.212C23.3407 37.604 23.1927 36.88 23.1927 36.04C23.1927 35.2 23.3407 34.476 23.6367 33.868C23.9407 33.26 24.3647 32.792 24.9087 32.464C25.4607 32.128 26.1127 31.96 26.8647 31.96ZM26.8647 32.86C26.3207 32.86 25.8487 32.988 25.4487 33.244C25.0487 33.492 24.7407 33.856 24.5247 34.336C24.3087 34.808 24.2007 35.376 24.2007 36.04C24.2007 36.704 24.3087 37.276 24.5247 37.756C24.7407 38.228 25.0487 38.592 25.4487 38.848C25.8487 39.096 26.3207 39.22 26.8647 39.22C27.4167 39.22 27.8887 39.096 28.2807 38.848C28.6807 38.592 28.9887 38.228 29.2047 37.756C29.4207 37.276 29.5287 36.704 29.5287 36.04C29.5287 35.376 29.4207 34.808 29.2047 34.336C28.9887 33.856 28.6807 33.492 28.2807 33.244C27.8887 32.988 27.4167 32.86 26.8647 32.86ZM37.1515 40L34.8115 32.08H35.8075L37.7635 39.124L39.6235 32.08H40.7155L42.5755 39.148L44.5315 32.08H45.4795L43.1515 40H41.9635L40.5595 34.864L40.1515 33.076H40.1395L39.7315 34.864L38.3395 40H37.1515ZM56.5428 32.08V40H55.3548L52.0428 34.696L51.2028 33.208H51.1908L51.2388 34.408V40H50.3268V32.08H51.5148L54.8148 37.36L55.6668 38.884H55.6788L55.6308 37.672V32.08H56.5428ZM70.4291 32.08V40H69.4691V32.08H70.4291ZM82.3559 32.08V40H81.1679L77.8559 34.696L77.0159 33.208H77.0039L77.0519 34.408V40H76.1399V32.08H77.3279L80.6279 37.36L81.4799 38.884H81.4919L81.4439 37.672V32.08H82.3559ZM89.5484 40L87.2084 32.08H88.2044L90.1604 39.124L92.0204 32.08H93.1124L94.9724 39.148L96.9284 32.08H97.8764L95.5484 40H94.3604L92.9564 34.864L92.5484 33.076H92.5364L92.1284 34.864L90.7364 40H89.5484ZM102.724 40V32.08H108.28V32.98H103.684V35.536H107.26V36.436H103.684V39.1H108.46V40H102.724ZM116.04 31.96C116.736 31.96 117.336 32.104 117.84 32.392C118.344 32.672 118.764 33.088 119.1 33.64L118.296 34.264C118 33.752 117.664 33.392 117.288 33.184C116.92 32.968 116.472 32.86 115.944 32.86C115.52 32.86 115.168 32.92 114.888 33.04C114.616 33.16 114.416 33.32 114.288 33.52C114.16 33.712 114.096 33.932 114.096 34.18C114.096 34.46 114.184 34.708 114.36 34.924C114.536 35.132 114.888 35.296 115.416 35.416L117.132 35.8C117.892 35.968 118.42 36.224 118.716 36.568C119.02 36.904 119.172 37.324 119.172 37.828C119.172 38.276 119.044 38.676 118.788 39.028C118.54 39.372 118.188 39.64 117.732 39.832C117.276 40.024 116.74 40.12 116.124 40.12C115.548 40.12 115.04 40.044 114.6 39.892C114.168 39.732 113.796 39.52 113.484 39.256C113.172 38.992 112.916 38.696 112.716 38.368L113.556 37.684C113.708 37.988 113.904 38.256 114.144 38.488C114.384 38.72 114.672 38.9 115.008 39.028C115.352 39.156 115.744 39.22 116.184 39.22C116.592 39.22 116.944 39.172 117.24 39.076C117.544 38.972 117.776 38.824 117.936 38.632C118.096 38.432 118.176 38.192 118.176 37.912C118.176 37.656 118.092 37.428 117.924 37.228C117.756 37.02 117.44 36.864 116.976 36.76L115.116 36.34C114.628 36.228 114.232 36.076 113.928 35.884C113.632 35.684 113.416 35.452 113.28 35.188C113.152 34.916 113.088 34.624 113.088 34.312C113.088 33.888 113.204 33.5 113.436 33.148C113.676 32.788 114.016 32.5 114.456 32.284C114.904 32.068 115.432 31.96 116.04 31.96ZM129.508 32.08V32.98H126.748V40H125.788V32.98H123.028V32.08H129.508ZM141.958 32.08V40H141.046V35.02L141.154 32.932H141.142L138.538 40H137.722L135.118 32.932H135.106L135.214 35.02V40H134.302V32.08H135.778L137.518 36.892L138.118 38.872H138.142L138.754 36.904L140.482 32.08H141.958ZM147.665 40V32.08H153.221V32.98H148.625V35.536H152.201V36.436H148.625V39.1H153.401V40H147.665ZM164.653 32.08V40H163.465L160.153 34.696L159.313 33.208H159.301L159.349 34.408V40H158.437V32.08H159.625L162.925 37.36L163.777 38.884H163.789L163.741 37.672V32.08H164.653ZM175.937 32.08V32.98H173.177V40H172.217V32.98H169.457V32.08H175.937ZM182.912 31.96C183.608 31.96 184.208 32.104 184.712 32.392C185.216 32.672 185.636 33.088 185.972 33.64L185.168 34.264C184.872 33.752 184.536 33.392 184.16 33.184C183.792 32.968 183.344 32.86 182.816 32.86C182.392 32.86 182.04 32.92 181.76 33.04C181.488 33.16 181.288 33.32 181.16 33.52C181.032 33.712 180.968 33.932 180.968 34.18C180.968 34.46 181.056 34.708 181.232 34.924C181.408 35.132 181.76 35.296 182.288 35.416L184.004 35.8C184.764 35.968 185.292 36.224 185.588 36.568C185.892 36.904 186.044 37.324 186.044 37.828C186.044 38.276 185.916 38.676 185.66 39.028C185.412 39.372 185.06 39.64 184.604 39.832C184.148 40.024 183.612 40.12 182.996 40.12C182.42 40.12 181.912 40.044 181.472 39.892C181.04 39.732 180.668 39.52 180.356 39.256C180.044 38.992 179.788 38.696 179.588 38.368L180.428 37.684C180.58 37.988 180.776 38.256 181.016 38.488C181.256 38.72 181.544 38.9 181.88 39.028C182.224 39.156 182.616 39.22 183.056 39.22C183.464 39.22 183.816 39.172 184.112 39.076C184.416 38.972 184.648 38.824 184.808 38.632C184.968 38.432 185.048 38.192 185.048 37.912C185.048 37.656 184.964 37.428 184.796 37.228C184.628 37.02 184.312 36.864 183.848 36.76L181.988 36.34C181.5 36.228 181.104 36.076 180.8 35.884C180.504 35.684 180.288 35.452 180.152 35.188C180.024 34.916 179.96 34.624 179.96 34.312C179.96 33.888 180.076 33.5 180.308 33.148C180.548 32.788 180.888 32.5 181.328 32.284C181.776 32.068 182.304 31.96 182.912 31.96Z" fill="#B69D68"/>
</g>
<defs>
<clipPath id="clip0_2001_269">
<rect width="187" height="45" fill="white"/>
</clipPath>
</defs>
</svg>
