<svg width="26" height="26" viewBox="0 0 26 26" fill="none" xmlns="http://www.w3.org/2000/svg">
<g clip-path="url(#clip0_2001_248)">
<path d="M15.6611 19.792C15.8054 19.9283 15.9256 20.0799 16.0264 20.2441L16.0313 20.25H16.0303C16.4011 20.8584 16.5 21.6431 16.5 22.5C16.5 24.433 14.933 26 13 26C11.067 26 9.5 24.433 9.5 22.5C9.5 21.6431 9.61587 20.8584 9.99805 20.25H9.96875L13 16.5L15.6611 19.792ZM3.5 9.5C4.35694 9.5 5.14156 9.61587 5.75 9.99805V9.96875L9.5 13L6.20801 15.6611C6.07169 15.8054 5.92015 15.9256 5.75586 16.0264L5.75 16.0312V16.0303C5.14156 16.4011 4.35695 16.5 3.5 16.5C1.567 16.5 8.4494e-08 14.933 0 13C-8.4494e-08 11.067 1.567 9.5 3.5 9.5ZM22.5 9.5C24.433 9.5 26 11.067 26 13C26 14.933 24.433 16.5 22.5 16.5C21.6431 16.5 20.8584 16.3841 20.25 16.002V16.0312L16.5 13L19.792 10.3389C19.9283 10.1946 20.0799 10.0744 20.2441 9.97363L20.25 9.96875V9.96973C20.8584 9.59893 21.6431 9.5 22.5 9.5ZM13 10.5C14.3807 10.5 15.5 11.6193 15.5 13C15.5 14.3807 14.3807 15.5 13 15.5C11.6193 15.5 10.5 14.3807 10.5 13C10.5 11.6193 11.6193 10.5 13 10.5ZM13 0C14.933 0 16.5 1.567 16.5 3.5C16.5 4.35694 16.3841 5.14156 16.002 5.75H16.0313L13 9.5L10.3389 6.20801C10.1946 6.07169 10.0744 5.92015 9.97363 5.75586L9.96875 5.75H9.96973C9.59893 5.14156 9.5 4.35695 9.5 3.5C9.5 1.567 11.067 0 13 0Z" fill="#1A1A1A"/>
</g>
<defs>
<clipPath id="clip0_2001_248">
<rect width="26" height="26" fill="white"/>
</clipPath>
</defs>
</svg>
