<svg width="32" height="32" viewBox="0 0 32 32" fill="none" xmlns="http://www.w3.org/2000/svg">
<path d="M15.4402 6.23717L7.28495 14.3924C6.94287 14.6853 6.903 15.2001 7.19602 15.5422C7.48897 15.8843 8.0038 15.9242 8.34588 15.6312C8.37777 15.6038 8.40756 15.5741 8.43482 15.5422L15.2037 8.78157L15.2037 26.1845C15.2037 26.6349 15.5688 27 16.0192 27C16.4697 27 16.8347 26.6349 16.8347 26.1845L16.8347 8.78157L23.5954 15.5422C23.8883 15.8843 24.4032 15.9242 24.7452 15.6312C25.0873 15.3381 25.1272 14.8234 24.8342 14.4813C24.8069 14.4494 24.7771 14.4196 24.7452 14.3924L16.59 6.2371C16.272 5.92096 15.7583 5.92096 15.4402 6.23717Z" fill="#0E1E2B"/>
</svg>
