<svg width="20" height="20" viewBox="0 0 20 20" fill="none" xmlns="http://www.w3.org/2000/svg">
<path d="M15.775 9.16557L10.7089 4.09945C10.527 3.88694 10.2071 3.86217 9.99464 4.0442C9.78214 4.22618 9.75736 4.54601 9.93939 4.75851C9.95637 4.77832 9.97483 4.79682 9.99464 4.81376L14.1944 9.01863L3.38355 9.01863C3.10378 9.01863 2.87695 9.24546 2.87695 9.52527C2.87695 9.80508 3.10378 10.0319 3.38355 10.0319L14.1944 10.0319L9.99464 14.2316C9.78214 14.4136 9.75736 14.7335 9.93939 14.946C10.1214 15.1585 10.4412 15.1832 10.6537 15.0012C10.6735 14.9842 10.692 14.9658 10.7089 14.946L15.7751 9.87984C15.9715 9.68231 15.9715 9.36318 15.775 9.16557Z" fill="white"/>
</svg>
