<svg width="20" height="20" viewBox="0 0 20 20" fill="none" xmlns="http://www.w3.org/2000/svg">
<path d="M9.75679 15.8981L14.8229 10.832C15.0354 10.65 15.0602 10.3302 14.8782 10.1177C14.6962 9.90517 14.3764 9.88039 14.1638 10.0624C14.144 10.0794 14.1255 10.0979 14.1086 10.1177L9.90372 14.3175L9.90372 3.50658C9.90372 3.22681 9.6769 2.99998 9.39709 2.99998C9.11727 2.99998 8.89049 3.22681 8.89049 3.50658L8.89049 14.3175L4.69071 10.1177C4.50872 9.90517 4.1889 9.88039 3.9764 10.0624C3.7639 10.2444 3.73912 10.5642 3.92115 10.7767C3.93813 10.7965 3.95659 10.815 3.9764 10.832L9.04252 15.8981C9.24005 16.0945 9.55917 16.0945 9.75679 15.8981Z" fill="white"/>
</svg>
