<svg width="20" height="20" viewBox="0 0 20 20" fill="none" xmlns="http://www.w3.org/2000/svg">
<path d="M18.4999 18V11.7738C18.4999 8.71375 17.8412 6.37625 14.2712 6.37625C12.5499 6.37625 11.4024 7.31125 10.9349 8.20375H10.8924V6.6525H7.51367V18H11.0412V12.3688C11.0412 10.8813 11.3174 9.4575 13.1449 9.4575C14.9512 9.4575 14.9724 11.1363 14.9724 12.4538V17.9788H18.4999V18Z" fill="#B69D68"/>
<path d="M1.77637 6.65251H5.30387V18H1.77637V6.65251Z" fill="#B69D68"/>
<path d="M3.54 1C2.41375 1 1.5 1.91375 1.5 3.04C1.5 4.16625 2.41375 5.10125 3.54 5.10125C4.66625 5.10125 5.58 4.16625 5.58 3.04C5.58 1.91375 4.66625 1 3.54 1Z" fill="#B69D68"/>
</svg>
