<svg width="20" height="20" viewBox="0 0 20 20" fill="none" xmlns="http://www.w3.org/2000/svg">
<path d="M12.8888 15.6185H7.11102C6.74285 15.6185 6.44434 15.917 6.44434 16.2852C6.44434 16.6534 6.74281 16.9519 7.11102 16.9519H12.8888C13.257 16.9519 13.5555 16.6534 13.5555 16.2852C13.5555 15.917 13.257 15.6185 12.8888 15.6185Z" fill="#B69D68"/>
<path d="M12.8888 13.5159H7.11102C6.74285 13.5159 6.44434 13.8143 6.44434 14.1825C6.44434 14.5507 6.74281 14.8492 7.11102 14.8492H12.8888C13.257 14.8492 13.5555 14.5507 13.5555 14.1825C13.5555 13.8143 13.257 13.5159 12.8888 13.5159Z" fill="#B69D68"/>
<path d="M18.1602 5.21H16.1867V1.62026C16.1867 1.27773 15.909 1 15.5664 1H5.04101C4.69848 1 4.42075 1.27769 4.42075 1.62026V5.21H2.44724C1.64922 5.21 1 5.85926 1 6.65727V12.8974C1 13.6954 1.64922 14.3446 2.44724 14.3446H4.42086V17.6741C4.42086 18.0166 4.69855 18.2944 5.04112 18.2944H15.5663C15.9088 18.2944 16.1866 18.0167 16.1866 17.6741V14.3446H18.1602C18.9582 14.3446 19.6074 13.6954 19.6074 12.8974V6.65727C19.6074 5.8593 18.9582 5.21 18.1602 5.21ZM5.66123 2.24052H14.9462V5.21H5.66123V2.24052ZM14.946 17.0538H5.66138C5.66138 16.9326 5.66138 12.1293 5.66138 11.9794H14.9461C14.946 12.1331 14.946 16.9373 14.946 17.0538ZM15.5664 8.85208H13.9876C13.6451 8.85208 13.3673 8.57438 13.3673 8.23182C13.3673 7.88925 13.645 7.61156 13.9876 7.61156H15.5664C15.9089 7.61156 16.1867 7.88925 16.1867 8.23182C16.1867 8.57438 15.909 8.85208 15.5664 8.85208Z" fill="#B69D68"/>
</svg>
