<svg width="32" height="32" viewBox="0 0 32 32" fill="none" xmlns="http://www.w3.org/2000/svg">
<path d="M25.7628 15.4403L17.6076 7.28508C17.3147 6.943 16.7999 6.90312 16.4578 7.19614C16.1157 7.48909 16.0758 8.00393 16.3688 8.34601C16.3962 8.3779 16.4259 8.40768 16.4578 8.43494L23.2184 15.2038H5.81549C5.36514 15.2038 5 15.5689 5 16.0194C5 16.4698 5.36514 16.8349 5.81549 16.8349H23.2184L16.4578 23.5955C16.1157 23.8885 16.0758 24.4033 16.3688 24.7454C16.6619 25.0875 17.1766 25.1273 17.5187 24.8343C17.5506 24.807 17.5804 24.7773 17.6076 24.7454L25.7629 16.5901C26.079 16.2722 26.079 15.7584 25.7628 15.4403Z" fill="#0E1E2B"/>
</svg>
