<svg width="32" height="32" viewBox="0 0 32 32" fill="none" xmlns="http://www.w3.org/2000/svg">
<path d="M6.23718 16.5597L14.3924 24.7149C14.6853 25.057 15.2001 25.0969 15.5422 24.8039C15.8843 24.5109 15.9242 23.9961 15.6312 23.654C15.6038 23.6221 15.5741 23.5923 15.5422 23.5651L8.78157 16.7962L26.1845 16.7962C26.6349 16.7962 27 16.4311 27 15.9806C27 15.5302 26.6349 15.1651 26.1845 15.1651L8.78157 15.1651L15.5422 8.4045C15.8843 8.11155 15.9242 7.59671 15.6312 7.25463C15.3381 6.91255 14.8234 6.87268 14.4813 7.1657C14.4494 7.19303 14.4196 7.22274 14.3924 7.25463L6.2371 15.4099C5.92096 15.7279 5.92096 16.2416 6.23718 16.5597Z" fill="#0E1E2B"/>
</svg>
