<svg width="28" height="28" viewBox="0 0 28 28" fill="none" xmlns="http://www.w3.org/2000/svg">
<path d="M14 2.1875C11.5633 2.1875 9.22645 3.15547 7.50346 4.87846C5.78047 6.60145 4.8125 8.93832 4.8125 11.375C4.8125 18.8125 14 25.8125 14 25.8125C14 25.8125 23.1875 18.8125 23.1875 11.375C23.1875 8.93832 22.2195 6.60145 20.4965 4.87846C18.7736 3.15547 16.4367 2.1875 14 2.1875ZM14 15.75C13.1347 15.75 12.2888 15.4934 11.5694 15.0127C10.8499 14.5319 10.2892 13.8487 9.95803 13.0492C9.62689 12.2498 9.54025 11.3701 9.70906 10.5215C9.87787 9.67281 10.2946 8.89326 10.9064 8.28141C11.5183 7.66955 12.2978 7.25287 13.1465 7.08406C13.9951 6.91525 14.8748 7.00189 15.6742 7.33303C16.4737 7.66416 17.1569 8.22492 17.6377 8.94438C18.1184 9.66385 18.375 10.5097 18.375 11.375C18.375 12.5353 17.9141 13.6481 17.0936 14.4686C16.2731 15.2891 15.1603 15.75 14 15.75Z" fill="#B69D68"/>
</svg>
