<svg width="516" height="258" viewBox="0 0 516 258" fill="none" xmlns="http://www.w3.org/2000/svg">
<mask id="path-1-inside-1_159_763" fill="white">
<path d="M-2.25551e-05 4.51102e-05C-1.65731e-05 68.4259 27.1821 134.049 75.5664 182.434C123.951 230.818 189.574 258 258 258C326.426 258 392.049 230.818 440.434 182.434C488.818 134.049 516 68.4259 516 3.05176e-05L514.786 3.06237e-05C514.786 68.104 487.732 133.419 439.575 181.575C391.419 229.732 326.104 256.786 258 256.786C189.896 256.786 124.581 229.732 76.4246 181.575C28.2679 133.419 1.21367 68.104 1.21366 4.5004e-05L-2.25551e-05 4.51102e-05Z"/>
</mask>
<path d="M-2.25551e-05 4.51102e-05C-1.65731e-05 68.4259 27.1821 134.049 75.5664 182.434C123.951 230.818 189.574 258 258 258C326.426 258 392.049 230.818 440.434 182.434C488.818 134.049 516 68.4259 516 3.05176e-05L514.786 3.06237e-05C514.786 68.104 487.732 133.419 439.575 181.575C391.419 229.732 326.104 256.786 258 256.786C189.896 256.786 124.581 229.732 76.4246 181.575C28.2679 133.419 1.21367 68.104 1.21366 4.5004e-05L-2.25551e-05 4.51102e-05Z" stroke="#C0C0C0" stroke-width="2" mask="url(#path-1-inside-1_159_763)"/>
</svg>
