<svg width="442" height="221" viewBox="0 0 442 221" fill="none" xmlns="http://www.w3.org/2000/svg">
<mask id="path-1-inside-1_159_762" fill="white">
<path d="M0 0C0 58.6128 23.2839 114.825 64.7294 156.271C106.175 197.716 162.387 221 221 221C279.613 221 335.825 197.716 377.271 156.271C418.716 114.825 442 58.6129 442 3.05176e-05H440.96C440.96 58.3371 417.786 114.285 376.535 155.535C335.285 196.786 279.337 219.96 221 219.96C162.663 219.96 106.715 196.786 65.4645 155.535C24.214 114.285 1.03964 58.3371 1.03964 0H0Z"/>
</mask>
<path d="M0 0C0 58.6128 23.2839 114.825 64.7294 156.271C106.175 197.716 162.387 221 221 221C279.613 221 335.825 197.716 377.271 156.271C418.716 114.825 442 58.6129 442 3.05176e-05H440.96C440.96 58.3371 417.786 114.285 376.535 155.535C335.285 196.786 279.337 219.96 221 219.96C162.663 219.96 106.715 196.786 65.4645 155.535C24.214 114.285 1.03964 58.3371 1.03964 0H0Z" stroke="#C0C0C0" stroke-width="2" mask="url(#path-1-inside-1_159_762)"/>
</svg>
