<svg width="516" height="258" viewBox="0 0 516 258" fill="none" xmlns="http://www.w3.org/2000/svg">
<mask id="path-1-inside-1_159_760" fill="white">
<path d="M516 258C516 189.574 488.818 123.951 440.434 75.5665C392.049 27.1821 326.426 5.16601e-06 258 0C189.574 -5.16601e-06 123.951 27.1821 75.5665 75.5664C27.1821 123.951 1.0332e-05 189.574 0 258H1.21368C1.21369 189.896 28.2679 124.581 76.4247 76.4246C124.581 28.2679 189.896 1.21368 258 1.21368C326.104 1.21369 391.419 28.2679 439.575 76.4247C487.732 124.581 514.786 189.896 514.786 258H516Z"/>
</mask>
<path d="M516 258C516 189.574 488.818 123.951 440.434 75.5665C392.049 27.1821 326.426 5.16601e-06 258 0C189.574 -5.16601e-06 123.951 27.1821 75.5665 75.5664C27.1821 123.951 1.0332e-05 189.574 0 258H1.21368C1.21369 189.896 28.2679 124.581 76.4247 76.4246C124.581 28.2679 189.896 1.21368 258 1.21368C326.104 1.21369 391.419 28.2679 439.575 76.4247C487.732 124.581 514.786 189.896 514.786 258H516Z" stroke="#C0C0C0" stroke-width="2" mask="url(#path-1-inside-1_159_760)"/>
</svg>
