<svg width="442" height="221" viewBox="0 0 442 221" fill="none" xmlns="http://www.w3.org/2000/svg">
<mask id="path-1-inside-1_159_761" fill="white">
<path d="M442 221C442 162.387 418.716 106.175 377.271 64.7294C335.825 23.2839 279.613 4.42515e-06 221 0C162.387 -4.42515e-06 106.175 23.2839 64.7294 64.7294C23.2839 106.175 8.8503e-06 162.387 0 221H1.03964C1.03965 162.663 24.214 106.715 65.4646 65.4645C106.715 24.214 162.663 1.03964 221 1.03964C279.337 1.03965 335.285 24.214 376.535 65.4645C417.786 106.715 440.96 162.663 440.96 221H442Z"/>
</mask>
<path d="M442 221C442 162.387 418.716 106.175 377.271 64.7294C335.825 23.2839 279.613 4.42515e-06 221 0C162.387 -4.42515e-06 106.175 23.2839 64.7294 64.7294C23.2839 106.175 8.8503e-06 162.387 0 221H1.03964C1.03965 162.663 24.214 106.715 65.4646 65.4645C106.715 24.214 162.663 1.03964 221 1.03964C279.337 1.03965 335.285 24.214 376.535 65.4645C417.786 106.715 440.96 162.663 440.96 221H442Z" stroke="#C0C0C0" stroke-width="2" mask="url(#path-1-inside-1_159_761)"/>
</svg>
